<mxfile host="app.diagrams.net" modified="2020-11-05T02:43:52.653Z" agent="5.0 (Windows NT 10.0; Win64; x64) AppleWebKit/537.36 (KHTML, like Gecko) Chrome/86.0.4240.183 Safari/537.36" etag="GjArOX9M3JgGIMAGeQh5" version="13.9.0" type="github">
  <diagram name="Page-1" id="19d8dcba-68ad-dc05-1034-9cf7b2a963f6">
    <mxGraphModel dx="868" dy="494" grid="1" gridSize="10" guides="1" tooltips="1" connect="1" arrows="1" fold="1" page="1" pageScale="1" pageWidth="1169" pageHeight="827" background="#ffffff" math="0" shadow="0">
      <root>
        <mxCell id="0" />
        <mxCell id="1" parent="0" />
        <mxCell id="7Wea8-h-4_J0Y_boDIyt-44" value="" style="whiteSpace=wrap;html=1;rounded=1;shadow=0;comic=0;strokeWidth=2;fontFamily=Verdana;align=center;fontSize=10;" vertex="1" parent="1">
          <mxGeometry x="540" y="383.5" width="120" height="60" as="geometry" />
        </mxCell>
        <mxCell id="218ae93e1282097f-19" value="" style="whiteSpace=wrap;html=1;rounded=1;shadow=0;comic=0;strokeWidth=3;fontFamily=Verdana;align=center;fontSize=10;" parent="1" vertex="1">
          <mxGeometry x="121" y="351" width="80" height="39" as="geometry" />
        </mxCell>
        <mxCell id="218ae93e1282097f-24" value="analysis" style="whiteSpace=wrap;html=1;rounded=1;shadow=0;comic=0;strokeWidth=2;fontFamily=Verdana;align=center;fontSize=10;fillColor=#dae8fc;strokeColor=#6c8ebf;" parent="1" vertex="1">
          <mxGeometry x="90.5" y="518.25" width="60" height="51.75" as="geometry" />
        </mxCell>
        <mxCell id="218ae93e1282097f-42" value="" style="edgeStyle=orthogonalEdgeStyle;rounded=1;html=1;labelBackgroundColor=none;endArrow=block;endFill=1;strokeColor=#4D4D4D;strokeWidth=2;fontFamily=Verdana;fontSize=12;fontStyle=1;exitX=0.5;exitY=1;exitDx=0;exitDy=0;" parent="1" source="218ae93e1282097f-19" target="6257edae8c83ed4a-12" edge="1">
          <mxGeometry relative="1" as="geometry">
            <mxPoint x="200" y="380" as="sourcePoint" />
          </mxGeometry>
        </mxCell>
        <mxCell id="218ae93e1282097f-43" value="" style="edgeStyle=orthogonalEdgeStyle;rounded=1;html=1;labelBackgroundColor=none;endArrow=block;endFill=1;strokeColor=#4D4D4D;strokeWidth=2;fontFamily=Verdana;fontSize=12;fontStyle=1;entryX=0.5;entryY=0;entryDx=0;entryDy=0;" parent="1" source="6257edae8c83ed4a-1" target="6257edae8c83ed4a-9" edge="1">
          <mxGeometry relative="1" as="geometry" />
        </mxCell>
        <mxCell id="218ae93e1282097f-45" value="" style="edgeStyle=elbowEdgeStyle;rounded=1;html=1;labelBackgroundColor=none;endArrow=block;endFill=1;strokeColor=#4D4D4D;strokeWidth=2;fontFamily=Verdana;fontSize=12;fontStyle=1" parent="1" source="6257edae8c83ed4a-9" target="6257edae8c83ed4a-21" edge="1">
          <mxGeometry relative="1" as="geometry" />
        </mxCell>
        <mxCell id="218ae93e1282097f-48" value="" style="edgeStyle=orthogonalEdgeStyle;rounded=1;html=1;labelBackgroundColor=none;endArrow=block;endFill=1;strokeColor=#4D4D4D;strokeWidth=2;fontFamily=Verdana;fontSize=12;fontStyle=1" parent="1" source="218ae93e1282097f-2" target="6257edae8c83ed4a-24" edge="1">
          <mxGeometry relative="1" as="geometry" />
        </mxCell>
        <mxCell id="218ae93e1282097f-50" value="" style="edgeStyle=orthogonalEdgeStyle;rounded=1;html=1;labelBackgroundColor=none;endArrow=block;endFill=1;strokeColor=#4D4D4D;strokeWidth=2;fontFamily=Verdana;fontSize=10;entryX=0.5;entryY=0;entryDx=0;entryDy=0;" parent="1" source="6257edae8c83ed4a-24" target="7Wea8-h-4_J0Y_boDIyt-44" edge="1">
          <mxGeometry relative="1" as="geometry">
            <mxPoint x="625" y="383.5" as="targetPoint" />
          </mxGeometry>
        </mxCell>
        <mxCell id="218ae93e1282097f-66" value="Ture" style="text;html=1;strokeColor=none;fillColor=none;align=center;verticalAlign=middle;whiteSpace=wrap;rounded=1;shadow=0;comic=0;fontFamily=Verdana;fontSize=10;fontStyle=1" parent="1" vertex="1">
          <mxGeometry x="131" y="358" width="60" height="25" as="geometry" />
        </mxCell>
        <mxCell id="218ae93e1282097f-78" value="Position 2" style="text;html=1;strokeColor=none;fillColor=none;align=center;verticalAlign=middle;whiteSpace=wrap;rounded=1;shadow=0;comic=0;fontFamily=Verdana;fontSize=10;" parent="1" vertex="1">
          <mxGeometry x="555" y="403.5" width="90" height="25" as="geometry" />
        </mxCell>
        <mxCell id="6257edae8c83ed4a-9" value="User Login" style="whiteSpace=wrap;html=1;rounded=1;shadow=0;comic=0;strokeWidth=2;fontFamily=Verdana;align=center;fontSize=12;fontStyle=1" parent="1" vertex="1">
          <mxGeometry x="58" y="138.25" width="128" height="50" as="geometry" />
        </mxCell>
        <mxCell id="6257edae8c83ed4a-21" value="Enter account/pass" style="whiteSpace=wrap;html=1;rounded=1;shadow=0;comic=0;strokeWidth=2;fontFamily=Verdana;align=center;fontSize=12;fontStyle=0" parent="1" vertex="1">
          <mxGeometry x="30" y="240" width="180" height="50" as="geometry" />
        </mxCell>
        <mxCell id="6257edae8c83ed4a-12" value="Main Pages" style="whiteSpace=wrap;html=1;rounded=1;shadow=0;comic=0;strokeWidth=2;fontFamily=Verdana;align=center;fontSize=12;fontStyle=0;fillColor=#b0e3e6;strokeColor=#0e8088;" parent="1" vertex="1">
          <mxGeometry x="20" y="430" width="200" height="30" as="geometry" />
        </mxCell>
        <mxCell id="6257edae8c83ed4a-1" value="Bliss App Launch" style="whiteSpace=wrap;html=1;rounded=1;shadow=0;comic=0;strokeWidth=2;fontFamily=Verdana;align=center;fontSize=12;fontStyle=1;fillColor=#f8cecc;strokeColor=#b85450;" parent="1" vertex="1">
          <mxGeometry x="48" y="38.25" width="148" height="50" as="geometry" />
        </mxCell>
        <mxCell id="218ae93e1282097f-2" value="Name&lt;div&gt;&lt;span&gt;Position&lt;/span&gt;&lt;/div&gt;" style="whiteSpace=wrap;html=1;rounded=1;shadow=0;comic=0;strokeWidth=2;fontFamily=Verdana;align=center;fontSize=12;fontStyle=1" parent="1" vertex="1">
          <mxGeometry x="525" y="153.5" width="150" height="50" as="geometry" />
        </mxCell>
        <mxCell id="218ae93e1282097f-3" value="" style="shape=actor;whiteSpace=wrap;html=1;rounded=0;shadow=0;comic=0;strokeWidth=1;fillColor=#CCCCCC;fontFamily=Verdana;align=center;strokeColor=none;fontSize=12;fontStyle=1" parent="1" vertex="1">
          <mxGeometry x="539" y="163.5" width="24" height="30" as="geometry" />
        </mxCell>
        <mxCell id="6257edae8c83ed4a-24" value="Name&lt;div&gt;&lt;span&gt;Position&lt;/span&gt;&lt;/div&gt;" style="whiteSpace=wrap;html=1;rounded=1;shadow=0;comic=0;strokeWidth=2;fontFamily=Verdana;align=center;fontSize=12;fontStyle=1" parent="1" vertex="1">
          <mxGeometry x="525" y="273.5" width="150" height="50" as="geometry" />
        </mxCell>
        <mxCell id="6257edae8c83ed4a-25" value="" style="shape=actor;whiteSpace=wrap;html=1;rounded=0;shadow=0;comic=0;strokeWidth=1;fillColor=#CCCCCC;fontFamily=Verdana;align=center;strokeColor=none;fontSize=12;fontStyle=1" parent="1" vertex="1">
          <mxGeometry x="539" y="283.5" width="24" height="30" as="geometry" />
        </mxCell>
        <mxCell id="-0eLL15dMgVvJ5aCQN9N-3" value="" style="whiteSpace=wrap;html=1;rounded=1;shadow=0;comic=0;strokeWidth=2;fontFamily=Verdana;align=center;fontSize=10;" parent="1" vertex="1">
          <mxGeometry x="31" y="351" width="80" height="39" as="geometry" />
        </mxCell>
        <mxCell id="-0eLL15dMgVvJ5aCQN9N-5" value="False" style="text;html=1;strokeColor=none;fillColor=none;align=center;verticalAlign=middle;whiteSpace=wrap;rounded=1;shadow=0;comic=0;fontFamily=Verdana;fontSize=10;" parent="1" vertex="1">
          <mxGeometry x="38.5" y="358" width="65" height="25" as="geometry" />
        </mxCell>
        <mxCell id="-0eLL15dMgVvJ5aCQN9N-7" value="" style="endArrow=classic;startArrow=classic;html=1;align=center;strokeColor=#4D4D4D;strokeWidth=2;" parent="1" edge="1">
          <mxGeometry width="50" height="50" relative="1" as="geometry">
            <mxPoint x="70.58000000000004" y="351" as="sourcePoint" />
            <mxPoint x="70.58000000000004" y="291" as="targetPoint" />
          </mxGeometry>
        </mxCell>
        <mxCell id="7Wea8-h-4_J0Y_boDIyt-25" value="" style="edgeStyle=orthogonalEdgeStyle;rounded=1;html=1;labelBackgroundColor=none;endArrow=block;endFill=1;strokeColor=#4D4D4D;strokeWidth=2;fontFamily=Verdana;fontSize=12;fontStyle=1;exitX=1;exitY=0.5;exitDx=0;exitDy=0;entryX=0.5;entryY=0;entryDx=0;entryDy=0;" edge="1" parent="1" source="6257edae8c83ed4a-21" target="7Wea8-h-4_J0Y_boDIyt-26">
          <mxGeometry relative="1" as="geometry">
            <mxPoint x="223.5" y="265" as="sourcePoint" />
          </mxGeometry>
        </mxCell>
        <mxCell id="7Wea8-h-4_J0Y_boDIyt-26" value="Use &lt;br&gt;social media login" style="whiteSpace=wrap;html=1;rounded=1;shadow=0;comic=0;strokeWidth=2;fontFamily=Verdana;align=center;fontSize=12;fontStyle=0" vertex="1" parent="1">
          <mxGeometry x="250" y="301" width="141.5" height="50" as="geometry" />
        </mxCell>
        <mxCell id="7Wea8-h-4_J0Y_boDIyt-27" value="" style="edgeStyle=orthogonalEdgeStyle;rounded=1;html=1;labelBackgroundColor=none;endArrow=block;endFill=1;strokeColor=#4D4D4D;strokeWidth=2;fontFamily=Verdana;fontSize=12;fontStyle=1;entryX=1;entryY=0.5;entryDx=0;entryDy=0;exitX=0.5;exitY=1;exitDx=0;exitDy=0;" edge="1" parent="1" source="7Wea8-h-4_J0Y_boDIyt-26" target="218ae93e1282097f-19">
          <mxGeometry relative="1" as="geometry">
            <mxPoint x="250" y="370" as="targetPoint" />
            <mxPoint x="392.5" y="290" as="sourcePoint" />
            <Array as="points">
              <mxPoint x="321" y="371" />
            </Array>
          </mxGeometry>
        </mxCell>
        <mxCell id="7Wea8-h-4_J0Y_boDIyt-28" value="home" style="whiteSpace=wrap;html=1;rounded=1;shadow=0;comic=0;strokeWidth=2;fontFamily=Verdana;align=center;fontSize=10;fillColor=#dae8fc;strokeColor=#6c8ebf;verticalAlign=middle;" vertex="1" parent="1">
          <mxGeometry x="10.5" y="518.25" width="60" height="51.75" as="geometry" />
        </mxCell>
        <mxCell id="7Wea8-h-4_J0Y_boDIyt-29" value="" style="edgeStyle=elbowEdgeStyle;rounded=1;html=1;labelBackgroundColor=none;endArrow=block;endFill=1;strokeColor=#4D4D4D;strokeWidth=2;fontFamily=Verdana;fontSize=10;verticalAlign=middle;align=center;" edge="1" parent="1">
          <mxGeometry relative="1" as="geometry">
            <mxPoint x="40.16666666666674" y="462.25" as="sourcePoint" />
            <mxPoint x="40.16666666666674" y="518.25" as="targetPoint" />
          </mxGeometry>
        </mxCell>
        <mxCell id="7Wea8-h-4_J0Y_boDIyt-32" value="self-data" style="whiteSpace=wrap;html=1;rounded=1;shadow=0;comic=0;strokeWidth=2;fontFamily=Verdana;align=center;fontSize=10;fillColor=#dae8fc;strokeColor=#6c8ebf;verticalAlign=middle;" vertex="1" parent="1">
          <mxGeometry x="169.5" y="518.25" width="60" height="51.75" as="geometry" />
        </mxCell>
        <mxCell id="7Wea8-h-4_J0Y_boDIyt-35" value="" style="edgeStyle=elbowEdgeStyle;rounded=1;html=1;labelBackgroundColor=none;endArrow=block;endFill=1;strokeColor=#4D4D4D;strokeWidth=2;fontFamily=Verdana;fontSize=10;verticalAlign=middle;align=center;" edge="1" parent="1">
          <mxGeometry relative="1" as="geometry">
            <mxPoint x="120.16666666666674" y="462.25" as="sourcePoint" />
            <mxPoint x="120.16666666666674" y="518.25" as="targetPoint" />
          </mxGeometry>
        </mxCell>
        <mxCell id="7Wea8-h-4_J0Y_boDIyt-38" value="" style="edgeStyle=elbowEdgeStyle;rounded=1;html=1;labelBackgroundColor=none;endArrow=block;endFill=1;strokeColor=#4D4D4D;strokeWidth=2;fontFamily=Verdana;fontSize=10;verticalAlign=middle;align=center;" edge="1" parent="1">
          <mxGeometry relative="1" as="geometry">
            <mxPoint x="198.91666666666674" y="462.25" as="sourcePoint" />
            <mxPoint x="198.91666666666674" y="518.25" as="targetPoint" />
          </mxGeometry>
        </mxCell>
        <mxCell id="7Wea8-h-4_J0Y_boDIyt-39" value="" style="edgeStyle=elbowEdgeStyle;rounded=1;html=1;labelBackgroundColor=none;endArrow=block;endFill=1;strokeColor=#4D4D4D;strokeWidth=2;fontFamily=Verdana;fontSize=12;fontStyle=1;entryX=0.5;entryY=0;entryDx=0;entryDy=0;" edge="1" parent="1" target="218ae93e1282097f-19">
          <mxGeometry relative="1" as="geometry">
            <mxPoint x="160.90941176470585" y="290" as="sourcePoint" />
            <mxPoint x="160.90941176470585" y="341.75" as="targetPoint" />
          </mxGeometry>
        </mxCell>
        <mxCell id="7Wea8-h-4_J0Y_boDIyt-41" value="analysis" style="whiteSpace=wrap;html=1;rounded=1;shadow=0;comic=0;strokeWidth=2;fontFamily=Verdana;align=center;fontSize=10;fillColor=#dae8fc;strokeColor=#6c8ebf;" vertex="1" parent="1">
          <mxGeometry x="735" y="36.5" width="60" height="51.75" as="geometry" />
        </mxCell>
        <mxCell id="7Wea8-h-4_J0Y_boDIyt-42" value="home" style="whiteSpace=wrap;html=1;rounded=1;shadow=0;comic=0;strokeWidth=2;fontFamily=Verdana;align=center;fontSize=10;fillColor=#dae8fc;strokeColor=#6c8ebf;verticalAlign=middle;" vertex="1" parent="1">
          <mxGeometry x="570" y="40" width="60" height="51.75" as="geometry" />
        </mxCell>
        <mxCell id="7Wea8-h-4_J0Y_boDIyt-43" value="self-data" style="whiteSpace=wrap;html=1;rounded=1;shadow=0;comic=0;strokeWidth=2;fontFamily=Verdana;align=center;fontSize=10;fillColor=#dae8fc;strokeColor=#6c8ebf;verticalAlign=middle;" vertex="1" parent="1">
          <mxGeometry x="895" y="36.5" width="60" height="51.75" as="geometry" />
        </mxCell>
      </root>
    </mxGraphModel>
  </diagram>
</mxfile>
